<mxfile host="app.diagrams.net" modified="2022-10-05T22:49:04.458Z" agent="5.0 (X11; Linux x86_64) AppleWebKit/537.36 (KHTML, like Gecko) Chrome/105.0.0.0 Safari/537.36" etag="8GkKoWGZrIcCGW61p-4h" version="20.3.7" type="github">
  <diagram id="4jMAq7Epy0fZq3VpoCym" name="Page-1">
    <mxGraphModel dx="2182" dy="1946" grid="1" gridSize="10" guides="1" tooltips="1" connect="1" arrows="1" fold="1" page="1" pageScale="1" pageWidth="827" pageHeight="1169" math="0" shadow="0">
      <root>
        <mxCell id="0" />
        <mxCell id="1" parent="0" />
        <mxCell id="VpQbNV9sELUUHLruqdH7-1" value="Exposure" style="swimlane;fontStyle=1;align=center;verticalAlign=top;childLayout=stackLayout;horizontal=1;startSize=26;horizontalStack=0;resizeParent=1;resizeParentMax=0;resizeLast=0;collapsible=1;marginBottom=0;" vertex="1" parent="1">
          <mxGeometry x="340" y="450" width="100" height="88" as="geometry">
            <mxRectangle x="600" y="310" width="90" height="26" as="alternateBounds" />
          </mxGeometry>
        </mxCell>
        <mxCell id="VpQbNV9sELUUHLruqdH7-2" value="+ level: real&#xa;+ duration: real&#xa;+ frequence: real" style="text;strokeColor=none;fillColor=none;align=left;verticalAlign=top;spacingLeft=4;spacingRight=4;overflow=hidden;rotatable=0;points=[[0,0.5],[1,0.5]];portConstraint=eastwest;" vertex="1" parent="VpQbNV9sELUUHLruqdH7-1">
          <mxGeometry y="26" width="100" height="54" as="geometry" />
        </mxCell>
        <mxCell id="VpQbNV9sELUUHLruqdH7-3" value="" style="line;strokeWidth=1;fillColor=none;align=left;verticalAlign=middle;spacingTop=-1;spacingLeft=3;spacingRight=3;rotatable=0;labelPosition=right;points=[];portConstraint=eastwest;" vertex="1" parent="VpQbNV9sELUUHLruqdH7-1">
          <mxGeometry y="80" width="100" height="8" as="geometry" />
        </mxCell>
        <mxCell id="VpQbNV9sELUUHLruqdH7-6" value="Hazard / threat" style="swimlane;fontStyle=1;align=center;verticalAlign=top;childLayout=stackLayout;horizontal=1;startSize=26;horizontalStack=0;resizeParent=1;resizeParentMax=0;resizeLast=0;collapsible=1;marginBottom=0;" vertex="1" parent="1">
          <mxGeometry x="160" y="350" width="160" height="78" as="geometry" />
        </mxCell>
        <mxCell id="VpQbNV9sELUUHLruqdH7-7" value="+ intensity: type intensitÃ©&#xa;+ probability" style="text;strokeColor=none;fillColor=none;align=left;verticalAlign=top;spacingLeft=4;spacingRight=4;overflow=hidden;rotatable=0;points=[[0,0.5],[1,0.5]];portConstraint=eastwest;" vertex="1" parent="VpQbNV9sELUUHLruqdH7-6">
          <mxGeometry y="26" width="160" height="44" as="geometry" />
        </mxCell>
        <mxCell id="VpQbNV9sELUUHLruqdH7-8" value="" style="line;strokeWidth=1;fillColor=none;align=left;verticalAlign=middle;spacingTop=-1;spacingLeft=3;spacingRight=3;rotatable=0;labelPosition=right;points=[];portConstraint=eastwest;" vertex="1" parent="VpQbNV9sELUUHLruqdH7-6">
          <mxGeometry y="70" width="160" height="8" as="geometry" />
        </mxCell>
        <mxCell id="VpQbNV9sELUUHLruqdH7-9" style="edgeStyle=orthogonalEdgeStyle;rounded=0;orthogonalLoop=1;jettySize=auto;html=1;exitX=0.5;exitY=0;exitDx=0;exitDy=0;endArrow=none;endFill=0;dashed=1;entryX=0.5;entryY=1;entryDx=0;entryDy=0;" edge="1" parent="1" source="VpQbNV9sELUUHLruqdH7-11" target="VpQbNV9sELUUHLruqdH7-14">
          <mxGeometry relative="1" as="geometry">
            <mxPoint x="390" y="280" as="targetPoint" />
          </mxGeometry>
        </mxCell>
        <mxCell id="VpQbNV9sELUUHLruqdH7-10" style="edgeStyle=elbowEdgeStyle;rounded=0;orthogonalLoop=1;jettySize=auto;html=1;exitX=1;exitY=0.5;exitDx=0;exitDy=0;entryX=0;entryY=0.25;entryDx=0;entryDy=0;endArrow=none;endFill=0;" edge="1" parent="1" source="VpQbNV9sELUUHLruqdH7-11" target="VpQbNV9sELUUHLruqdH7-72">
          <mxGeometry relative="1" as="geometry" />
        </mxCell>
        <mxCell id="VpQbNV9sELUUHLruqdH7-11" value="" style="rhombus;aspect=fixed;" vertex="1" parent="1">
          <mxGeometry x="380" y="360" width="20" height="20" as="geometry" />
        </mxCell>
        <mxCell id="VpQbNV9sELUUHLruqdH7-12" value="" style="endArrow=none;html=1;rounded=0;align=center;verticalAlign=bottom;labelBackgroundColor=none;edgeStyle=elbowEdgeStyle;" edge="1" parent="1" target="VpQbNV9sELUUHLruqdH7-11">
          <mxGeometry relative="1" as="geometry">
            <mxPoint x="320" y="370" as="sourcePoint" />
          </mxGeometry>
        </mxCell>
        <mxCell id="VpQbNV9sELUUHLruqdH7-13" value="" style="endArrow=none;html=1;rounded=0;align=center;verticalAlign=bottom;labelBackgroundColor=none;entryX=0.5;entryY=0;entryDx=0;entryDy=0;edgeStyle=elbowEdgeStyle;elbow=vertical;" edge="1" parent="1" source="VpQbNV9sELUUHLruqdH7-11" target="VpQbNV9sELUUHLruqdH7-1">
          <mxGeometry relative="1" as="geometry">
            <mxPoint x="460" y="370" as="targetPoint" />
          </mxGeometry>
        </mxCell>
        <mxCell id="VpQbNV9sELUUHLruqdH7-14" value="Risk" style="swimlane;fontStyle=1;align=center;verticalAlign=top;childLayout=stackLayout;horizontal=1;startSize=26;horizontalStack=0;resizeParent=1;resizeParentMax=0;resizeLast=0;collapsible=1;marginBottom=0;" vertex="1" parent="1">
          <mxGeometry x="347.5" y="250" width="85" height="60" as="geometry" />
        </mxCell>
        <mxCell id="VpQbNV9sELUUHLruqdH7-15" value="+ level: real" style="text;strokeColor=none;fillColor=none;align=left;verticalAlign=top;spacingLeft=4;spacingRight=4;overflow=hidden;rotatable=0;points=[[0,0.5],[1,0.5]];portConstraint=eastwest;" vertex="1" parent="VpQbNV9sELUUHLruqdH7-14">
          <mxGeometry y="26" width="85" height="26" as="geometry" />
        </mxCell>
        <mxCell id="VpQbNV9sELUUHLruqdH7-16" value="" style="line;strokeWidth=1;fillColor=none;align=left;verticalAlign=middle;spacingTop=-1;spacingLeft=3;spacingRight=3;rotatable=0;labelPosition=right;points=[];portConstraint=eastwest;" vertex="1" parent="VpQbNV9sELUUHLruqdH7-14">
          <mxGeometry y="52" width="85" height="8" as="geometry" />
        </mxCell>
        <mxCell id="VpQbNV9sELUUHLruqdH7-17" style="edgeStyle=elbowEdgeStyle;rounded=0;orthogonalLoop=1;jettySize=auto;html=1;exitX=0.5;exitY=0;exitDx=0;exitDy=0;entryX=0.5;entryY=1;entryDx=0;entryDy=0;endArrow=block;endFill=0;elbow=vertical;" edge="1" parent="1" source="VpQbNV9sELUUHLruqdH7-18" target="VpQbNV9sELUUHLruqdH7-6">
          <mxGeometry relative="1" as="geometry">
            <mxPoint x="-5" y="478" as="targetPoint" />
          </mxGeometry>
        </mxCell>
        <mxCell id="VpQbNV9sELUUHLruqdH7-18" value="Vector occurrence" style="swimlane;fontStyle=1;align=center;verticalAlign=top;childLayout=stackLayout;horizontal=1;startSize=26;horizontalStack=0;resizeParent=1;resizeParentMax=0;resizeLast=0;collapsible=1;marginBottom=0;" vertex="1" parent="1">
          <mxGeometry x="160" y="558" width="160" height="80" as="geometry" />
        </mxCell>
        <mxCell id="VpQbNV9sELUUHLruqdH7-19" value="+ presence: boolean&#xa;+ aboundance: real" style="text;strokeColor=none;fillColor=none;align=left;verticalAlign=top;spacingLeft=4;spacingRight=4;overflow=hidden;rotatable=0;points=[[0,0.5],[1,0.5]];portConstraint=eastwest;" vertex="1" parent="VpQbNV9sELUUHLruqdH7-18">
          <mxGeometry y="26" width="160" height="44" as="geometry" />
        </mxCell>
        <mxCell id="VpQbNV9sELUUHLruqdH7-20" value="" style="line;strokeWidth=1;fillColor=none;align=left;verticalAlign=middle;spacingTop=-1;spacingLeft=3;spacingRight=3;rotatable=0;labelPosition=right;points=[];portConstraint=eastwest;" vertex="1" parent="VpQbNV9sELUUHLruqdH7-18">
          <mxGeometry y="70" width="160" height="10" as="geometry" />
        </mxCell>
        <mxCell id="VpQbNV9sELUUHLruqdH7-21" style="edgeStyle=orthogonalEdgeStyle;rounded=0;orthogonalLoop=1;jettySize=auto;html=1;exitX=0.75;exitY=1;exitDx=0;exitDy=0;entryX=0;entryY=0.25;entryDx=0;entryDy=0;endArrow=block;endFill=0;" edge="1" parent="1" source="VpQbNV9sELUUHLruqdH7-22" target="VpQbNV9sELUUHLruqdH7-14">
          <mxGeometry relative="1" as="geometry" />
        </mxCell>
        <mxCell id="VpQbNV9sELUUHLruqdH7-22" value="Human-vector encounter risk" style="swimlane;fontStyle=1;align=center;verticalAlign=top;childLayout=stackLayout;horizontal=1;startSize=26;horizontalStack=0;resizeParent=1;resizeParentMax=0;resizeLast=0;collapsible=1;marginBottom=0;" vertex="1" parent="1">
          <mxGeometry x="60" y="199" width="190" height="34" as="geometry" />
        </mxCell>
        <mxCell id="VpQbNV9sELUUHLruqdH7-23" value="" style="line;strokeWidth=1;fillColor=none;align=left;verticalAlign=middle;spacingTop=-1;spacingLeft=3;spacingRight=3;rotatable=0;labelPosition=right;points=[];portConstraint=eastwest;" vertex="1" parent="VpQbNV9sELUUHLruqdH7-22">
          <mxGeometry y="26" width="190" height="8" as="geometry" />
        </mxCell>
        <mxCell id="VpQbNV9sELUUHLruqdH7-24" style="edgeStyle=orthogonalEdgeStyle;rounded=0;orthogonalLoop=1;jettySize=auto;html=1;exitX=0.75;exitY=1;exitDx=0;exitDy=0;entryX=0.25;entryY=0;entryDx=0;entryDy=0;endArrow=block;endFill=0;" edge="1" parent="1" source="VpQbNV9sELUUHLruqdH7-25" target="VpQbNV9sELUUHLruqdH7-14">
          <mxGeometry relative="1" as="geometry" />
        </mxCell>
        <mxCell id="VpQbNV9sELUUHLruqdH7-25" value="Bite risk" style="swimlane;fontStyle=1;align=center;verticalAlign=top;childLayout=stackLayout;horizontal=1;startSize=26;horizontalStack=0;resizeParent=1;resizeParentMax=0;resizeLast=0;collapsible=1;marginBottom=0;" vertex="1" parent="1">
          <mxGeometry x="200" y="150" width="90" height="34" as="geometry" />
        </mxCell>
        <mxCell id="VpQbNV9sELUUHLruqdH7-26" value="" style="line;strokeWidth=1;fillColor=none;align=left;verticalAlign=middle;spacingTop=-1;spacingLeft=3;spacingRight=3;rotatable=0;labelPosition=right;points=[];portConstraint=eastwest;" vertex="1" parent="VpQbNV9sELUUHLruqdH7-25">
          <mxGeometry y="26" width="90" height="8" as="geometry" />
        </mxCell>
        <mxCell id="VpQbNV9sELUUHLruqdH7-27" style="edgeStyle=orthogonalEdgeStyle;rounded=0;orthogonalLoop=1;jettySize=auto;html=1;exitX=0.75;exitY=1;exitDx=0;exitDy=0;entryX=0.5;entryY=0;entryDx=0;entryDy=0;endArrow=block;endFill=0;" edge="1" parent="1" source="VpQbNV9sELUUHLruqdH7-28" target="VpQbNV9sELUUHLruqdH7-14">
          <mxGeometry relative="1" as="geometry" />
        </mxCell>
        <mxCell id="VpQbNV9sELUUHLruqdH7-28" value="Risk of infected bites (of infection)" style="swimlane;fontStyle=1;align=center;verticalAlign=top;childLayout=stackLayout;horizontal=1;startSize=26;horizontalStack=0;resizeParent=1;resizeParentMax=0;resizeLast=0;collapsible=1;marginBottom=0;" vertex="1" parent="1">
          <mxGeometry x="240" y="100" width="220" height="34" as="geometry" />
        </mxCell>
        <mxCell id="VpQbNV9sELUUHLruqdH7-29" value="" style="line;strokeWidth=1;fillColor=none;align=left;verticalAlign=middle;spacingTop=-1;spacingLeft=3;spacingRight=3;rotatable=0;labelPosition=right;points=[];portConstraint=eastwest;" vertex="1" parent="VpQbNV9sELUUHLruqdH7-28">
          <mxGeometry y="26" width="220" height="8" as="geometry" />
        </mxCell>
        <mxCell id="VpQbNV9sELUUHLruqdH7-30" style="edgeStyle=orthogonalEdgeStyle;rounded=0;orthogonalLoop=1;jettySize=auto;html=1;exitX=0.5;exitY=1;exitDx=0;exitDy=0;entryX=0.75;entryY=0;entryDx=0;entryDy=0;endArrow=block;endFill=0;" edge="1" parent="1" source="VpQbNV9sELUUHLruqdH7-31" target="VpQbNV9sELUUHLruqdH7-14">
          <mxGeometry relative="1" as="geometry" />
        </mxCell>
        <mxCell id="VpQbNV9sELUUHLruqdH7-31" value="Malaria case risk" style="swimlane;fontStyle=1;align=center;verticalAlign=top;childLayout=stackLayout;horizontal=1;startSize=26;horizontalStack=0;resizeParent=1;resizeParentMax=0;resizeLast=0;collapsible=1;marginBottom=0;" vertex="1" parent="1">
          <mxGeometry x="470" y="100" width="170" height="34" as="geometry" />
        </mxCell>
        <mxCell id="VpQbNV9sELUUHLruqdH7-32" value="" style="line;strokeWidth=1;fillColor=none;align=left;verticalAlign=middle;spacingTop=-1;spacingLeft=3;spacingRight=3;rotatable=0;labelPosition=right;points=[];portConstraint=eastwest;" vertex="1" parent="VpQbNV9sELUUHLruqdH7-31">
          <mxGeometry y="26" width="170" height="8" as="geometry" />
        </mxCell>
        <mxCell id="VpQbNV9sELUUHLruqdH7-39" style="edgeStyle=orthogonalEdgeStyle;rounded=0;orthogonalLoop=1;jettySize=auto;html=1;exitX=0.25;exitY=1;exitDx=0;exitDy=0;endArrow=block;endFill=0;entryX=1;entryY=0.25;entryDx=0;entryDy=0;" edge="1" parent="1" source="VpQbNV9sELUUHLruqdH7-40" target="VpQbNV9sELUUHLruqdH7-14">
          <mxGeometry relative="1" as="geometry">
            <mxPoint x="700" y="110" as="targetPoint" />
          </mxGeometry>
        </mxCell>
        <mxCell id="VpQbNV9sELUUHLruqdH7-97" style="edgeStyle=elbowEdgeStyle;rounded=0;orthogonalLoop=1;jettySize=auto;elbow=vertical;html=1;exitX=1;exitY=0.5;exitDx=0;exitDy=0;entryX=0;entryY=0.5;entryDx=0;entryDy=0;endArrow=none;endFill=0;" edge="1" parent="1" source="VpQbNV9sELUUHLruqdH7-40" target="VpQbNV9sELUUHLruqdH7-95">
          <mxGeometry relative="1" as="geometry" />
        </mxCell>
        <mxCell id="VpQbNV9sELUUHLruqdH7-40" value="Malaria re-introduction risk" style="swimlane;fontStyle=1;align=center;verticalAlign=top;childLayout=stackLayout;horizontal=1;startSize=26;horizontalStack=0;resizeParent=1;resizeParentMax=0;resizeLast=0;collapsible=1;marginBottom=0;" vertex="1" parent="1">
          <mxGeometry x="530" y="200" width="190" height="34" as="geometry" />
        </mxCell>
        <mxCell id="VpQbNV9sELUUHLruqdH7-41" value="" style="line;strokeWidth=1;fillColor=none;align=left;verticalAlign=middle;spacingTop=-1;spacingLeft=3;spacingRight=3;rotatable=0;labelPosition=right;points=[];portConstraint=eastwest;" vertex="1" parent="VpQbNV9sELUUHLruqdH7-40">
          <mxGeometry y="26" width="190" height="8" as="geometry" />
        </mxCell>
        <mxCell id="VpQbNV9sELUUHLruqdH7-47" style="edgeStyle=elbowEdgeStyle;rounded=0;orthogonalLoop=1;jettySize=auto;html=1;exitX=0.75;exitY=0;exitDx=0;exitDy=0;endArrow=block;endFill=0;entryX=0.75;entryY=1;entryDx=0;entryDy=0;elbow=vertical;" edge="1" parent="1" source="VpQbNV9sELUUHLruqdH7-49" target="VpQbNV9sELUUHLruqdH7-72">
          <mxGeometry relative="1" as="geometry">
            <mxPoint x="1370" y="464" as="targetPoint" />
            <Array as="points">
              <mxPoint x="730" y="480" />
            </Array>
          </mxGeometry>
        </mxCell>
        <mxCell id="VpQbNV9sELUUHLruqdH7-48" style="edgeStyle=orthogonalEdgeStyle;rounded=0;orthogonalLoop=1;jettySize=auto;html=1;exitX=0.25;exitY=0;exitDx=0;exitDy=0;entryX=0.5;entryY=1;entryDx=0;entryDy=0;endArrow=diamond;endFill=0;" edge="1" parent="1" source="VpQbNV9sELUUHLruqdH7-49" target="VpQbNV9sELUUHLruqdH7-53">
          <mxGeometry relative="1" as="geometry" />
        </mxCell>
        <mxCell id="VpQbNV9sELUUHLruqdH7-49" value="Human individual" style="swimlane;fontStyle=1;align=center;verticalAlign=top;childLayout=stackLayout;horizontal=1;startSize=26;horizontalStack=0;resizeParent=1;resizeParentMax=0;resizeLast=0;collapsible=1;marginBottom=0;" vertex="1" parent="1">
          <mxGeometry x="630" y="766" width="180" height="118" as="geometry" />
        </mxCell>
        <mxCell id="VpQbNV9sELUUHLruqdH7-50" value="+Â sex&#xa;+ age&#xa;+ risk perception&#xa;+ profissional activity&#xa;+ ..." style="text;strokeColor=none;fillColor=none;align=left;verticalAlign=top;spacingLeft=4;spacingRight=4;overflow=hidden;rotatable=0;points=[[0,0.5],[1,0.5]];portConstraint=eastwest;" vertex="1" parent="VpQbNV9sELUUHLruqdH7-49">
          <mxGeometry y="26" width="180" height="84" as="geometry" />
        </mxCell>
        <mxCell id="VpQbNV9sELUUHLruqdH7-51" value="" style="line;strokeWidth=1;fillColor=none;align=left;verticalAlign=middle;spacingTop=-1;spacingLeft=3;spacingRight=3;rotatable=0;labelPosition=right;points=[];portConstraint=eastwest;" vertex="1" parent="VpQbNV9sELUUHLruqdH7-49">
          <mxGeometry y="110" width="180" height="8" as="geometry" />
        </mxCell>
        <mxCell id="VpQbNV9sELUUHLruqdH7-52" style="edgeStyle=orthogonalEdgeStyle;rounded=0;orthogonalLoop=1;jettySize=auto;html=1;exitX=0.5;exitY=0;exitDx=0;exitDy=0;entryX=0.25;entryY=1;entryDx=0;entryDy=0;endArrow=block;endFill=0;" edge="1" parent="1" source="VpQbNV9sELUUHLruqdH7-53" target="VpQbNV9sELUUHLruqdH7-72">
          <mxGeometry relative="1" as="geometry">
            <mxPoint x="1310" y="464" as="targetPoint" />
          </mxGeometry>
        </mxCell>
        <mxCell id="VpQbNV9sELUUHLruqdH7-53" value="Human population" style="swimlane;fontStyle=1;align=center;verticalAlign=top;childLayout=stackLayout;horizontal=1;startSize=26;horizontalStack=0;resizeParent=1;resizeParentMax=0;resizeLast=0;collapsible=1;marginBottom=0;" vertex="1" parent="1">
          <mxGeometry x="490" y="630" width="240" height="88" as="geometry" />
        </mxCell>
        <mxCell id="VpQbNV9sELUUHLruqdH7-54" value="+ density: real&#xa;+ personal protection (utilisation rate): real&#xa;+..." style="text;strokeColor=none;fillColor=none;align=left;verticalAlign=top;spacingLeft=4;spacingRight=4;overflow=hidden;rotatable=0;points=[[0,0.5],[1,0.5]];portConstraint=eastwest;" vertex="1" parent="VpQbNV9sELUUHLruqdH7-53">
          <mxGeometry y="26" width="240" height="54" as="geometry" />
        </mxCell>
        <mxCell id="VpQbNV9sELUUHLruqdH7-55" value="" style="line;strokeWidth=1;fillColor=none;align=left;verticalAlign=middle;spacingTop=-1;spacingLeft=3;spacingRight=3;rotatable=0;labelPosition=right;points=[];portConstraint=eastwest;" vertex="1" parent="VpQbNV9sELUUHLruqdH7-53">
          <mxGeometry y="80" width="240" height="8" as="geometry" />
        </mxCell>
        <mxCell id="VpQbNV9sELUUHLruqdH7-56" value="Territorial vulnerability (WHO)" style="swimlane;fontStyle=1;align=center;verticalAlign=top;childLayout=stackLayout;horizontal=1;startSize=26;horizontalStack=0;resizeParent=1;resizeParentMax=0;resizeLast=0;collapsible=1;marginBottom=0;" vertex="1" parent="1">
          <mxGeometry x="970" y="-120" width="240" height="34" as="geometry" />
        </mxCell>
        <mxCell id="VpQbNV9sELUUHLruqdH7-57" value="" style="line;strokeWidth=1;fillColor=none;align=left;verticalAlign=middle;spacingTop=-1;spacingLeft=3;spacingRight=3;rotatable=0;labelPosition=right;points=[];portConstraint=eastwest;" vertex="1" parent="VpQbNV9sELUUHLruqdH7-56">
          <mxGeometry y="26" width="240" height="8" as="geometry" />
        </mxCell>
        <mxCell id="VpQbNV9sELUUHLruqdH7-71" style="edgeStyle=elbowEdgeStyle;rounded=0;orthogonalLoop=1;jettySize=auto;html=1;exitX=1;exitY=0.5;exitDx=0;exitDy=0;endArrow=none;endFill=0;dashed=1;" edge="1" parent="1" source="VpQbNV9sELUUHLruqdH7-80">
          <mxGeometry relative="1" as="geometry">
            <mxPoint x="460" y="690" as="targetPoint" />
            <mxPoint x="7" y="638" as="sourcePoint" />
            <Array as="points">
              <mxPoint x="460" y="750" />
            </Array>
          </mxGeometry>
        </mxCell>
        <mxCell id="VpQbNV9sELUUHLruqdH7-65" style="edgeStyle=orthogonalEdgeStyle;rounded=0;orthogonalLoop=1;jettySize=auto;html=1;entryX=0.5;entryY=1;entryDx=0;entryDy=0;endArrow=none;endFill=0;" edge="1" parent="1" source="VpQbNV9sELUUHLruqdH7-66" target="VpQbNV9sELUUHLruqdH7-1">
          <mxGeometry relative="1" as="geometry">
            <mxPoint x="110" y="540" as="targetPoint" />
          </mxGeometry>
        </mxCell>
        <mxCell id="VpQbNV9sELUUHLruqdH7-70" style="edgeStyle=elbowEdgeStyle;rounded=0;orthogonalLoop=1;jettySize=auto;html=1;exitX=1;exitY=0.5;exitDx=0;exitDy=0;endArrow=none;endFill=0;entryX=0;entryY=0.5;entryDx=0;entryDy=0;" edge="1" parent="1" source="VpQbNV9sELUUHLruqdH7-67" target="VpQbNV9sELUUHLruqdH7-54">
          <mxGeometry relative="1" as="geometry">
            <mxPoint x="480" y="783" as="targetPoint" />
          </mxGeometry>
        </mxCell>
        <mxCell id="VpQbNV9sELUUHLruqdH7-66" value="Place" style="swimlane;fontStyle=1;align=center;verticalAlign=top;childLayout=stackLayout;horizontal=1;startSize=26;horizontalStack=0;resizeParent=1;resizeParentMax=0;resizeLast=0;collapsible=1;marginBottom=0;" vertex="1" parent="1">
          <mxGeometry x="337.5" y="630" width="105" height="88" as="geometry">
            <mxRectangle x="600" y="310" width="90" height="26" as="alternateBounds" />
          </mxGeometry>
        </mxCell>
        <mxCell id="VpQbNV9sELUUHLruqdH7-67" value="+ name: char&#xa;+ lat: real&#xa;+ long: real" style="text;strokeColor=none;fillColor=none;align=left;verticalAlign=top;spacingLeft=4;spacingRight=4;overflow=hidden;rotatable=0;points=[[0,0.5],[1,0.5]];portConstraint=eastwest;" vertex="1" parent="VpQbNV9sELUUHLruqdH7-66">
          <mxGeometry y="26" width="105" height="54" as="geometry" />
        </mxCell>
        <mxCell id="VpQbNV9sELUUHLruqdH7-68" value="" style="line;strokeWidth=1;fillColor=none;align=left;verticalAlign=middle;spacingTop=-1;spacingLeft=3;spacingRight=3;rotatable=0;labelPosition=right;points=[];portConstraint=eastwest;" vertex="1" parent="VpQbNV9sELUUHLruqdH7-66">
          <mxGeometry y="80" width="105" height="8" as="geometry" />
        </mxCell>
        <mxCell id="VpQbNV9sELUUHLruqdH7-72" value="Entity suffering the damages (&quot;enjeu&quot;)" style="swimlane;fontStyle=1;align=center;verticalAlign=top;childLayout=stackLayout;horizontal=1;startSize=26;horizontalStack=0;resizeParent=1;resizeParentMax=0;resizeLast=0;collapsible=1;marginBottom=0;" vertex="1" parent="1">
          <mxGeometry x="460" y="350" width="230" height="58" as="geometry" />
        </mxCell>
        <mxCell id="VpQbNV9sELUUHLruqdH7-73" value="+ vulnerability" style="text;strokeColor=none;fillColor=none;align=left;verticalAlign=top;spacingLeft=4;spacingRight=4;overflow=hidden;rotatable=0;points=[[0,0.5],[1,0.5]];portConstraint=eastwest;" vertex="1" parent="VpQbNV9sELUUHLruqdH7-72">
          <mxGeometry y="26" width="230" height="24" as="geometry" />
        </mxCell>
        <mxCell id="VpQbNV9sELUUHLruqdH7-74" value="" style="line;strokeWidth=1;fillColor=none;align=left;verticalAlign=middle;spacingTop=-1;spacingLeft=3;spacingRight=3;rotatable=0;labelPosition=right;points=[];portConstraint=eastwest;" vertex="1" parent="VpQbNV9sELUUHLruqdH7-72">
          <mxGeometry y="50" width="230" height="8" as="geometry" />
        </mxCell>
        <mxCell id="VpQbNV9sELUUHLruqdH7-91" style="edgeStyle=elbowEdgeStyle;rounded=0;orthogonalLoop=1;jettySize=auto;html=1;exitX=0;exitY=0.25;exitDx=0;exitDy=0;entryX=1;entryY=0.5;entryDx=0;entryDy=0;endArrow=none;endFill=0;" edge="1" parent="1" source="VpQbNV9sELUUHLruqdH7-75" target="VpQbNV9sELUUHLruqdH7-89">
          <mxGeometry relative="1" as="geometry" />
        </mxCell>
        <mxCell id="VpQbNV9sELUUHLruqdH7-75" value="Plasmodium circulation&#xa;(occurrence of P. in the population)" style="swimlane;fontStyle=1;align=center;verticalAlign=top;childLayout=stackLayout;horizontal=1;startSize=40;horizontalStack=0;resizeParent=1;resizeParentMax=0;resizeLast=0;collapsible=1;marginBottom=0;" vertex="1" parent="1">
          <mxGeometry x="-115" y="692" width="220" height="74" as="geometry" />
        </mxCell>
        <mxCell id="VpQbNV9sELUUHLruqdH7-76" value="+ Parasitic load (prevalence): real" style="text;strokeColor=none;fillColor=none;align=left;verticalAlign=top;spacingLeft=4;spacingRight=4;overflow=hidden;rotatable=0;points=[[0,0.5],[1,0.5]];portConstraint=eastwest;" vertex="1" parent="VpQbNV9sELUUHLruqdH7-75">
          <mxGeometry y="40" width="220" height="24" as="geometry" />
        </mxCell>
        <mxCell id="VpQbNV9sELUUHLruqdH7-77" value="" style="line;strokeWidth=1;fillColor=none;align=left;verticalAlign=middle;spacingTop=-1;spacingLeft=3;spacingRight=3;rotatable=0;labelPosition=right;points=[];portConstraint=eastwest;" vertex="1" parent="VpQbNV9sELUUHLruqdH7-75">
          <mxGeometry y="64" width="220" height="10" as="geometry" />
        </mxCell>
        <mxCell id="VpQbNV9sELUUHLruqdH7-79" value="Territory" style="swimlane;fontStyle=1;align=center;verticalAlign=top;childLayout=stackLayout;horizontal=1;startSize=26;horizontalStack=0;resizeParent=1;resizeParentMax=0;resizeLast=0;collapsible=1;marginBottom=0;" vertex="1" parent="1">
          <mxGeometry x="-220" y="782" width="130" height="58" as="geometry">
            <mxRectangle x="600" y="310" width="90" height="26" as="alternateBounds" />
          </mxGeometry>
        </mxCell>
        <mxCell id="VpQbNV9sELUUHLruqdH7-80" value="+ receptivity: boolean" style="text;strokeColor=none;fillColor=none;align=left;verticalAlign=top;spacingLeft=4;spacingRight=4;overflow=hidden;rotatable=0;points=[[0,0.5],[1,0.5]];portConstraint=eastwest;" vertex="1" parent="VpQbNV9sELUUHLruqdH7-79">
          <mxGeometry y="26" width="130" height="24" as="geometry" />
        </mxCell>
        <mxCell id="VpQbNV9sELUUHLruqdH7-81" value="" style="line;strokeWidth=1;fillColor=none;align=left;verticalAlign=middle;spacingTop=-1;spacingLeft=3;spacingRight=3;rotatable=0;labelPosition=right;points=[];portConstraint=eastwest;" vertex="1" parent="VpQbNV9sELUUHLruqdH7-79">
          <mxGeometry y="50" width="130" height="8" as="geometry" />
        </mxCell>
        <mxCell id="VpQbNV9sELUUHLruqdH7-86" style="edgeStyle=elbowEdgeStyle;rounded=0;orthogonalLoop=1;jettySize=auto;html=1;exitX=0.5;exitY=1;exitDx=0;exitDy=0;entryX=0.5;entryY=0;entryDx=0;entryDy=0;endArrow=none;endFill=0;elbow=vertical;" edge="1" parent="1" source="VpQbNV9sELUUHLruqdH7-89" target="VpQbNV9sELUUHLruqdH7-79">
          <mxGeometry relative="1" as="geometry" />
        </mxCell>
        <mxCell id="VpQbNV9sELUUHLruqdH7-90" style="edgeStyle=elbowEdgeStyle;rounded=0;orthogonalLoop=1;jettySize=auto;html=1;exitX=0.5;exitY=1;exitDx=0;exitDy=0;entryX=0.5;entryY=1;entryDx=0;entryDy=0;endArrow=none;endFill=0;elbow=vertical;dashed=1;" edge="1" parent="1" source="VpQbNV9sELUUHLruqdH7-82" target="VpQbNV9sELUUHLruqdH7-89">
          <mxGeometry relative="1" as="geometry" />
        </mxCell>
        <mxCell id="VpQbNV9sELUUHLruqdH7-93" style="edgeStyle=elbowEdgeStyle;rounded=0;orthogonalLoop=1;jettySize=auto;elbow=vertical;html=1;exitX=1;exitY=0.5;exitDx=0;exitDy=0;entryX=1;entryY=0.25;entryDx=0;entryDy=0;endArrow=none;endFill=0;" edge="1" parent="1" source="VpQbNV9sELUUHLruqdH7-82" target="VpQbNV9sELUUHLruqdH7-79">
          <mxGeometry relative="1" as="geometry">
            <Array as="points">
              <mxPoint x="125" y="672" />
              <mxPoint x="65" y="572" />
            </Array>
          </mxGeometry>
        </mxCell>
        <mxCell id="VpQbNV9sELUUHLruqdH7-82" value="Territorial receptivity" style="swimlane;fontStyle=1;align=center;verticalAlign=top;childLayout=stackLayout;horizontal=1;startSize=26;horizontalStack=0;resizeParent=1;resizeParentMax=0;resizeLast=0;collapsible=1;marginBottom=0;" vertex="1" parent="1">
          <mxGeometry x="-220" y="604" width="130" height="34" as="geometry">
            <mxRectangle x="600" y="310" width="90" height="26" as="alternateBounds" />
          </mxGeometry>
        </mxCell>
        <mxCell id="VpQbNV9sELUUHLruqdH7-84" value="" style="line;strokeWidth=1;fillColor=none;align=left;verticalAlign=middle;spacingTop=-1;spacingLeft=3;spacingRight=3;rotatable=0;labelPosition=right;points=[];portConstraint=eastwest;" vertex="1" parent="VpQbNV9sELUUHLruqdH7-82">
          <mxGeometry y="26" width="130" height="8" as="geometry" />
        </mxCell>
        <mxCell id="VpQbNV9sELUUHLruqdH7-87" value="Characterizes" style="text;html=1;align=center;verticalAlign=middle;resizable=0;points=[];autosize=1;strokeColor=none;fillColor=none;" vertex="1" parent="1">
          <mxGeometry x="-75" y="592" width="100" height="30" as="geometry" />
        </mxCell>
        <mxCell id="VpQbNV9sELUUHLruqdH7-88" value="" style="triangle;aspect=fixed;fillColor=#000000;" vertex="1" parent="1">
          <mxGeometry x="16" y="601" width="6" height="12" as="geometry" />
        </mxCell>
        <mxCell id="VpQbNV9sELUUHLruqdH7-92" style="edgeStyle=elbowEdgeStyle;rounded=0;orthogonalLoop=1;jettySize=auto;html=1;exitX=0;exitY=0.5;exitDx=0;exitDy=0;entryX=0;entryY=0.25;entryDx=0;entryDy=0;endArrow=none;endFill=0;" edge="1" parent="1" source="VpQbNV9sELUUHLruqdH7-89" target="VpQbNV9sELUUHLruqdH7-18">
          <mxGeometry relative="1" as="geometry">
            <Array as="points">
              <mxPoint x="-280" y="652" />
            </Array>
          </mxGeometry>
        </mxCell>
        <mxCell id="VpQbNV9sELUUHLruqdH7-89" value="" style="rhombus;aspect=fixed;" vertex="1" parent="1">
          <mxGeometry x="-165" y="702" width="20" height="20" as="geometry" />
        </mxCell>
        <mxCell id="VpQbNV9sELUUHLruqdH7-95" value="Territorial vulnerability" style="swimlane;fontStyle=1;align=center;verticalAlign=top;childLayout=stackLayout;horizontal=1;startSize=26;horizontalStack=0;resizeParent=1;resizeParentMax=0;resizeLast=0;collapsible=1;marginBottom=0;" vertex="1" parent="1">
          <mxGeometry x="780" y="199" width="160" height="34" as="geometry" />
        </mxCell>
        <mxCell id="VpQbNV9sELUUHLruqdH7-96" value="" style="line;strokeWidth=1;fillColor=none;align=left;verticalAlign=middle;spacingTop=-1;spacingLeft=3;spacingRight=3;rotatable=0;labelPosition=right;points=[];portConstraint=eastwest;" vertex="1" parent="VpQbNV9sELUUHLruqdH7-95">
          <mxGeometry y="26" width="160" height="8" as="geometry" />
        </mxCell>
        <mxCell id="VpQbNV9sELUUHLruqdH7-98" value="is" style="text;html=1;align=center;verticalAlign=middle;resizable=0;points=[];autosize=1;strokeColor=none;fillColor=none;" vertex="1" parent="1">
          <mxGeometry x="740" y="190" width="30" height="30" as="geometry" />
        </mxCell>
        <mxCell id="VpQbNV9sELUUHLruqdH7-99" value="" style="triangle;aspect=fixed;fillColor=#000000;direction=west;" vertex="1" parent="1">
          <mxGeometry x="740" y="199" width="6" height="12" as="geometry" />
        </mxCell>
      </root>
    </mxGraphModel>
  </diagram>
</mxfile>
